<svg width="229" height="96" viewBox="0 0 229 96" fill="none" xmlns="http://www.w3.org/2000/svg">
<g clip-path="url(#clip0)">
<path d="M0 34.7512C0 42.9823 3.26642 50.8762 9.08069 56.6964C14.895 62.5166 22.7808 65.7864 31.0034 65.7864C30.902 69.9248 31.6287 74.0418 33.1407 77.8948C34.6527 81.7479 36.9195 85.2592 39.8076 88.222C42.6957 91.1849 46.1467 93.5394 49.9576 95.147C53.7684 96.7547 57.8621 97.5828 61.9975 97.5828C66.1329 97.5828 70.2266 96.7547 74.0374 95.147C77.8483 93.5394 81.2994 91.1849 84.1875 88.222C87.0756 85.2592 89.3423 81.7479 90.8544 77.8948C92.3664 74.0418 93.093 69.9248 92.9916 65.7864V3.73468H31.0034C22.784 3.73468 14.901 7.00189 9.08728 12.8181C3.27355 18.6343 0.00494548 26.5234 0 34.7512H0ZM9.86812 34.7512C9.86812 29.3035 12.03 24.0788 15.8782 20.2267C19.7264 16.3746 24.9457 14.2105 30.3878 14.2105C30.6676 14.2105 30.9101 14.2105 31.19 14.2105V55.292C30.9101 55.292 30.6676 55.3853 30.3878 55.3853C27.6916 55.3853 25.0217 54.8534 22.531 53.82C20.0402 52.7865 17.7773 51.2718 15.8716 49.3625C13.9659 47.4531 12.4548 45.1865 11.4247 42.6922C10.3946 40.198 9.86566 37.5249 9.86812 34.8259V34.7512Z" fill="white"/>
<path d="M110.456 35.776H117.624V40H104.984V17.536H110.456V35.776ZM128.362 40.256C126.613 40.256 125.034 39.8827 123.626 39.136C122.239 38.3893 121.141 37.3227 120.33 35.936C119.541 34.5493 119.146 32.928 119.146 31.072C119.146 29.2373 119.551 27.6267 120.362 26.24C121.173 24.832 122.282 23.7547 123.69 23.008C125.098 22.2613 126.677 21.888 128.426 21.888C130.175 21.888 131.754 22.2613 133.162 23.008C134.57 23.7547 135.679 24.832 136.49 26.24C137.301 27.6267 137.706 29.2373 137.706 31.072C137.706 32.9067 137.29 34.528 136.458 35.936C135.647 37.3227 134.527 38.3893 133.098 39.136C131.69 39.8827 130.111 40.256 128.362 40.256ZM128.362 35.52C129.407 35.52 130.293 35.136 131.018 34.368C131.765 33.6 132.138 32.5013 132.138 31.072C132.138 29.6427 131.775 28.544 131.05 27.776C130.346 27.008 129.471 26.624 128.426 26.624C127.359 26.624 126.474 27.008 125.77 27.776C125.066 28.5227 124.714 29.6213 124.714 31.072C124.714 32.5013 125.055 33.6 125.738 34.368C126.442 35.136 127.317 35.52 128.362 35.52ZM148.641 34.88L152.513 22.144H158.337L152.001 40H145.249L138.913 22.144H144.769L148.641 34.88ZM177.472 30.784C177.472 31.296 177.44 31.8293 177.376 32.384H164.992C165.078 33.4933 165.43 34.3467 166.048 34.944C166.688 35.52 167.467 35.808 168.384 35.808C169.75 35.808 170.699 35.232 171.232 34.08H177.056C176.758 35.2533 176.214 36.3093 175.424 37.248C174.656 38.1867 173.686 38.9227 172.512 39.456C171.339 39.9893 170.027 40.256 168.576 40.256C166.827 40.256 165.27 39.8827 163.904 39.136C162.539 38.3893 161.472 37.3227 160.704 35.936C159.936 34.5493 159.552 32.928 159.552 31.072C159.552 29.216 159.926 27.5947 160.672 26.208C161.44 24.8213 162.507 23.7547 163.872 23.008C165.238 22.2613 166.806 21.888 168.576 21.888C170.304 21.888 171.84 22.2507 173.184 22.976C174.528 23.7013 175.574 24.736 176.32 26.08C177.088 27.424 177.472 28.992 177.472 30.784ZM171.872 29.344C171.872 28.4053 171.552 27.6587 170.912 27.104C170.272 26.5493 169.472 26.272 168.512 26.272C167.595 26.272 166.816 26.5387 166.176 27.072C165.558 27.6053 165.174 28.3627 165.024 29.344H171.872ZM185.831 16.32V40H180.359V16.32H185.831ZM208.037 22.144L196.837 48.48H190.949L195.045 39.392L187.78 22.144H193.893L198.021 33.312L202.117 22.144H208.037ZM104.056 64.736C104.056 62.5173 104.536 60.544 105.496 58.816C106.456 57.0667 107.789 55.712 109.496 54.752C111.224 53.7707 113.176 53.28 115.352 53.28C118.019 53.28 120.301 53.984 122.2 55.392C124.099 56.8 125.368 58.72 126.008 61.152H119.992C119.544 60.2133 118.904 59.4987 118.072 59.008C117.261 58.5173 116.333 58.272 115.288 58.272C113.603 58.272 112.237 58.8587 111.192 60.032C110.147 61.2053 109.624 62.7733 109.624 64.736C109.624 66.6987 110.147 68.2667 111.192 69.44C112.237 70.6133 113.603 71.2 115.288 71.2C116.333 71.2 117.261 70.9547 118.072 70.464C118.904 69.9733 119.544 69.2587 119.992 68.32H126.008C125.368 70.752 124.099 72.672 122.2 74.08C120.301 75.4667 118.019 76.16 115.352 76.16C113.176 76.16 111.224 75.68 109.496 74.72C107.789 73.7387 106.456 72.384 105.496 70.656C104.536 68.928 104.056 66.9547 104.056 64.736ZM128.271 67.04C128.271 65.2053 128.612 63.5947 129.295 62.208C129.999 60.8213 130.948 59.7547 132.143 59.008C133.338 58.2613 134.671 57.888 136.143 57.888C137.402 57.888 138.5 58.144 139.439 58.656C140.399 59.168 141.135 59.84 141.647 60.672V58.144H147.119V76H141.647V73.472C141.114 74.304 140.367 74.976 139.407 75.488C138.468 76 137.37 76.256 136.111 76.256C134.66 76.256 133.338 75.8827 132.143 75.136C130.948 74.368 129.999 73.2907 129.295 71.904C128.612 70.496 128.271 68.8747 128.271 67.04ZM141.647 67.072C141.647 65.7067 141.263 64.6293 140.495 63.84C139.748 63.0507 138.831 62.656 137.743 62.656C136.655 62.656 135.727 63.0507 134.959 63.84C134.212 64.608 133.839 65.6747 133.839 67.04C133.839 68.4053 134.212 69.4933 134.959 70.304C135.727 71.0933 136.655 71.488 137.743 71.488C138.831 71.488 139.748 71.0933 140.495 70.304C141.263 69.5147 141.647 68.4373 141.647 67.072ZM160.038 62.688H157.094V76H151.622V62.688H149.638V58.144H151.622V57.632C151.622 55.4347 152.251 53.7707 153.51 52.64C154.768 51.488 156.614 50.912 159.046 50.912C159.451 50.912 159.75 50.9227 159.942 50.944V55.584C158.896 55.52 158.16 55.6693 157.734 56.032C157.307 56.3947 157.094 57.0453 157.094 57.984V58.144H160.038V62.688ZM179.441 66.784C179.441 67.296 179.409 67.8293 179.345 68.384H166.961C167.046 69.4933 167.398 70.3467 168.017 70.944C168.657 71.52 169.436 71.808 170.353 71.808C171.718 71.808 172.668 71.232 173.201 70.08H179.025C178.726 71.2533 178.182 72.3093 177.393 73.248C176.625 74.1867 175.654 74.9227 174.481 75.456C173.308 75.9893 171.996 76.256 170.545 76.256C168.796 76.256 167.238 75.8827 165.873 75.136C164.508 74.3893 163.441 73.3227 162.673 71.936C161.905 70.5493 161.521 68.928 161.521 67.072C161.521 65.216 161.894 63.5947 162.641 62.208C163.409 60.8213 164.476 59.7547 165.841 59.008C167.206 58.2613 168.774 57.888 170.545 57.888C172.273 57.888 173.809 58.2507 175.153 58.976C176.497 59.7013 177.542 60.736 178.289 62.08C179.057 63.424 179.441 64.992 179.441 66.784ZM173.841 65.344C173.841 64.4053 173.521 63.6587 172.881 63.104C172.241 62.5493 171.441 62.272 170.481 62.272C169.564 62.272 168.785 62.5387 168.145 63.072C167.526 63.6053 167.142 64.3627 166.993 65.344H173.841ZM174.225 53.568L166.513 56.8V53.024L174.225 49.312V53.568Z" fill="white"/>
</g>
<defs>
<clipPath id="clip0">
<rect width="229" height="96" fill="white"/>
</clipPath>
</defs>
</svg>
