<svg width="42" height="42" viewBox="0 0 42 42" fill="none" xmlns="http://www.w3.org/2000/svg">
<g clip-path="url(#clip0)">
<path d="M31.1185 30.7569L26.6581 24.3785C26.4472 24.0771 26.1275 23.8694 25.7664 23.7993C25.4053 23.7292 25.031 23.8022 24.7227 24.0028L20.6464 26.6545C19.885 26.3223 18.3979 25.4613 17.1229 23.4456C15.8491 21.4243 15.7135 19.7072 15.7446 18.8834L19.8912 16.3449C20.2053 16.1533 20.4326 15.847 20.5249 15.4908C20.6172 15.1346 20.5673 14.7565 20.3857 14.4364L16.5517 7.66528C16.3703 7.34437 16.0708 7.10685 15.7171 7.00315C15.3633 6.89945 14.983 6.93775 14.657 7.10992L11.0766 9.0024C10.7834 9.18806 10.5686 9.47486 10.4728 9.80839C10.3739 10.1491 8.12612 18.242 13.0337 26.0261C17.3159 32.813 24.1575 34.7876 26.067 35.22C26.3461 35.2832 26.5193 35.3137 26.5656 35.3212C26.9077 35.3788 27.259 35.3078 27.5519 35.1219L30.8011 32.7041C31.0976 32.4851 31.2968 32.1589 31.3561 31.7951C31.4154 31.4313 31.3301 31.0587 31.1185 30.7569Z" fill="white" fill-opacity="0.5"/>
</g>
<defs>
<clipPath id="clip0">
<rect width="34" height="34" fill="white" transform="translate(8.17371 0.665649) rotate(12.7575)"/>
</clipPath>
</defs>
</svg>
