<svg width="36" height="36" viewBox="0 0 36 36" fill="none" xmlns="http://www.w3.org/2000/svg">
<path d="M32.33 5.99997C32.1937 5.98593 32.0563 5.98593 31.92 5.99997H3.92001C3.74056 6.00274 3.56229 6.02965 3.39001 6.07997L17.84 20.47L32.33 5.99997Z" fill="white" fill-opacity="0.5"/>
<path d="M33.8101 7.39001L19.2501 21.89C18.8753 22.2625 18.3684 22.4716 17.8401 22.4716C17.3117 22.4716 16.8048 22.2625 16.4301 21.89L2.00005 7.50001C1.95569 7.66306 1.93217 7.83106 1.93005 8.00001V28C1.93005 28.5304 2.14077 29.0392 2.51584 29.4142C2.89091 29.7893 3.39962 30 3.93005 30H31.9301C32.4605 30 32.9692 29.7893 33.3443 29.4142C33.7193 29.0392 33.9301 28.5304 33.9301 28V8.00001C33.9221 7.79167 33.8816 7.58585 33.8101 7.39001ZM5.30005 28H3.91005V26.57L11.1801 19.36L12.5901 20.77L5.30005 28ZM31.9101 28H30.5101L23.2201 20.77L24.6301 19.36L31.9001 26.57L31.9101 28Z" fill="white" fill-opacity="0.5"/>
</svg>
