<svg width="38" height="38" viewBox="0 0 38 38" fill="none" xmlns="http://www.w3.org/2000/svg">
<path d="M32.6562 4.15625H5.34375C4.68691 4.15625 4.15625 4.68691 4.15625 5.34375V32.6562C4.15625 33.3131 4.68691 33.8437 5.34375 33.8437H32.6562C33.3131 33.8437 33.8438 33.3131 33.8438 32.6562V5.34375C33.8438 4.68691 33.3131 4.15625 32.6562 4.15625ZM29.2273 12.8213H26.8561C24.9969 12.8213 24.6369 13.7045 24.6369 15.0033V17.8645H29.0752L28.4963 22.3436H24.6369V33.8437H20.0094V22.3473H16.1389V17.8645H20.0094V14.5617C20.0094 10.7283 22.351 8.63906 25.7725 8.63906C27.4127 8.63906 28.8191 8.76152 29.2311 8.81719V12.8213H29.2273Z" fill="#111111" fill-opacity="0.4"/>
</svg>
